<svg xmlns="http://www.w3.org/2000/svg" width="123" height="775" viewBox="0 0 123 775">
    <g fill="#F4ECE1" fill-rule="evenodd">
        <path d="M119.746 630.995H59.589c-6.07 0-9.938 2.491-9.938 7.794a9.443 9.443 0 0 0 2.973 6.806 9.39 9.39 0 0 0 6.965 2.536h49.12c5.323 0 7.772-2.954 7.772-7.794v-3.114h3.265v57.705h-3.265v-3.114c0-4.822-2.485-7.793-7.773-7.793H24.63l-4.188 10.907c-4.046-12.455-12.74-35.374-18.81-46.744h48.215a35.29 35.29 0 0 1-12.422-27.58c0-17.794 11.34-25.392 24.843-25.392h46.44c5.324 0 7.773-2.954 7.773-7.794v-3.167h3.265v46.744zM111.494 504.873c6.211 7.474 11.34 15.748 11.34 33.506 0 28.043-18.19 45.196-40.566 45.196-26.707 0-44.843-17.616-44.843-43.452 0-25.552 16.468-35.214 37.762-35.214v44.715c25.483-1.779 38.082-13.86 38.082-27.117a29.36 29.36 0 0 0-5.59-17.616l3.815-.018zm-39.625 35.25c0-4.823-2.485-7.011-9.938-7.011-11.037 0-18.65 2.188-18.65 7.793 0 5.606 6.69 9.04 21.294 9.04h7.311l-.017-9.822zM119.746 499.998h-3.265v-3.114c0-4.822-2.485-7.794-7.773-7.794H24.63l-4.188 10.908c-4.046-12.456-12.74-35.374-18.81-46.745h107.076c5.324 0 7.773-2.953 7.773-7.793v-3.203h3.265v57.74zM64.575 377.274c-13.681 5.463-22.536 14.965-22.536 25.09 0 7.117 4.187 12.153 9.937 12.153 5.75 0 7.613-2.652 12.582-17.136 7.009-19.787 15.545-29.858 28.605-29.858 19.112 0 29.688 19.484 29.688 38.488 0 14.342-3.105 24.627-6.21 30.072H95.648v-3.56c11.818-7.953 22.696-13.86 22.696-27.277 0-7.794-4.809-14.021-10.417-14.021-4.507 0-6.832 2.65-12.28 15.89-8.535 20.907-17.408 28.594-29.368 28.594-18.03 0-28.854-17.136-28.854-35.997 0-8.719 2.324-19.573 6.21-26.032h20.94v3.594zM111.494 280.583c6.211 7.473 11.34 15.747 11.34 33.506 0 28.043-18.19 45.196-40.566 45.196-26.725 0-44.914-17.616-44.914-43.47 0-25.552 16.468-35.214 37.762-35.214v44.715c25.483-1.779 38.082-13.86 38.082-27.117a29.36 29.36 0 0 0-5.59-17.616h3.886zM71.87 315.797c0-4.822-2.485-7.01-9.938-7.01-11.037 0-18.65 2.188-18.65 7.793s6.69 9.039 21.294 9.039h7.311l-.017-9.822zM109.347 183.5c1.615 4.004.568 6.335-3.549 7.723a11.03 11.03 0 0 1-2.626.64c-3.975.32-7.968.748-11.943.801-8.873.142-31.48 0-37.745 1.886-9.192 2.652-17.745 13.488-17.745 34.823 0 28.203 13.682 38.95 24.844 38.95 6.832 0 11.658-4.057 11.658-12.456 0-7.633-6.37-12.615-10.647-12.615-7.435 0-11.534 2.669-16.823-.73v-.142c-3.389-2.705-4.028-6.637-3.14-10.676.798-3.702 5.146-5.98 8.588-6.513 4.295-.658 8.696-.676 13.043-1.068a3.335 3.335 0 0 1 3.815 2.225c4.082 9.484 4.046 15.462 8.518 24.769 2.662 5.533 7.098 13.647 12.262 17.277 12.688 8.897 30.274 3.132 33.504-12.01 2.13-9.965 1.065-18.862-5.129-26.691-1.952-2.473-4.205-4.715-6.388-7.118l2.236-1.014a16.996 16.996 0 0 0 9.689-11.05 26.893 26.893 0 0 0-3.815-23.132c-1.917-3.131-4.508-5.195-8.607-3.879zm-7.258 40.446a6.735 6.735 0 0 1 6.353 6.405 7.725 7.725 0 0 1-4.756 7.99c-12.9 5.836-29.83-4.11-33.539-14.235-.053-.072 22.111-.712 31.942-.16zM111.335 697.864c6.21 7.473 11.339 17.456 11.339 34.431 0 25.552-18.19 42.705-40.566 42.705-26.725 0-44.914-17.616-44.914-47.207 0-23.38 13.522-30.071 22.217-30.071 6.69 0 13.682 3.559 13.682 13.398 0 6.709-4.348 11.851-12.422 11.851-11.658 0-17.568 3.274-17.568 9.04 0 5.764 6.07 10.124 19.272 10.124 34.497 0 50.663-14.342 50.663-28.826a23.17 23.17 0 0 0-5.59-15.427l3.887-.018zM56.519 95.101c-6.956-3.559-26.618-9.822-42.483 2.1-15.26 11.477-18.544 36.797-7.098 54.164 9.174 13.843 28.215 17.616 45.641 9.626l.515-8.772c-13.877 9.11-32.403 6.922-40.176-4.804-9.53-14.396-7.098-35.214 5.324-44.485 14.658-11.032 34.816-1.548 35.012-1.459 16.61 8.488 36.005 27.136 59.483 63.008h6.956V92.36h-7.098v59.52C91.052 122.2 72.632 103.357 56.519 95.1zM34.798 2.61C15.668 5.206.408 21.256.408 39.726v.374a36.74 36.74 0 0 0 11.055 26.69c7.648 7.135 18.313 10.694 30.806 10.196 22.679-1.014 37.585-15.836 37.585-37.1v-1.78c-.55-13.914-11.481-26.21-24.684-30.747a83.199 83.199 0 0 1 40.318 6.068c11.605 4.806 19.134 16.2 19.023 28.79v.142c0 13.203-7.861 23.292-21.419 27.687l2.183 6.78c16.432-5.338 26.263-18.185 26.334-34.431v-.178c0-23.541-17.887-32.918-23.388-35.232C77.139-1.928 52.633-.487 34.798 2.61zM72.72 38.338c.657 18.274-11.392 30.605-30.77 31.46-10.523.569-19.378-2.332-25.625-8.328a29.293 29.293 0 0 1-8.872-21.53v-.303c0-17.51 16.805-30.338 31.941-30.356 17.409.07 32.67 11.352 33.326 29.057z"/>
    </g>
</svg>
